<svg xmlns="http://www.w3.org/2000/svg" viewBox="0 0 234.55 235.07"><defs><style>.af15ba28-ce54-4a92-8597-cc757e9a8407{fill:#29166f;}.eaf6c400-e374-458a-8de8-783c64022695{fill:#fff;}.bcec7ccb-e679-47fe-b7f0-33a467002990{fill:none;stroke:#fff;stroke-miterlimit:10;stroke-width:27px;}.a343261f-b9b0-4cf9-accc-29554ed32654{fill:#29156e;}.f56cfe6a-360d-4a9a-9ca9-c8d2c4912c66{fill:#d6251e;}</style></defs><g id="bac9dc04-dd58-4d3f-bb9f-98b2816c6c01" data-name="Fondo"><ellipse class="af15ba28-ce54-4a92-8597-cc757e9a8407" cx="117.27" cy="117.53" rx="117.27" ry="117.53"></ellipse></g><g id="b3632781-9562-45d5-a3f8-e54a7a2d79b4" data-name="CBlanco"><ellipse class="eaf6c400-e374-458a-8de8-783c64022695" cx="117.01" cy="117.17" rx="77.56" ry="78.19"></ellipse></g><g id="ac0c58dd-a1bc-4255-a067-b5eb67173422" data-name="BordeBlanco"><circle class="bcec7ccb-e679-47fe-b7f0-33a467002990" cx="116.94" cy="117.49" r="97.05"></circle></g><g id="a99878b0-16c6-403c-8450-c5e4d9e57da1" data-name="E"><path class="a343261f-b9b0-4cf9-accc-29554ed32654" d="M145.84,51l-.14,136A63,63,0,0,0,183,156.33l-8.76,0h-8.85l0-20.17,13,.13V107.07l-11.49-.13q-.06-11-.1-22l18.32.18A67.65,67.65,0,0,0,145.84,51Z" transform="translate(-2.55 -2.51)"></path></g><g id="af2ac02d-cb24-418d-943e-4e6a1c68c132" data-name="M"><path class="af15ba28-ce54-4a92-8597-cc757e9a8407" d="M85.24,82.48l24,20.93,31.64-26v86.78H125.22l.14-43.39L107.6,134.11,81.94,114a67.5,67.5,0,0,0-.44,10.44,40.72,40.72,0,0,0,1.61,11.73A34.17,34.17,0,0,0,88.05,146a33.75,33.75,0,0,0,5.31,5.74l-4,4.17-3.85,4a53.69,53.69,0,0,1-9.6-12.4A56,56,0,0,1,69,122.12C68.56,100.51,82.21,85.63,85.24,82.48Z" transform="translate(-2.55 -2.51)"></path></g><g id="b41f694d-3bc5-4127-873d-ec34045ab735" data-name="C"><path class="a343261f-b9b0-4cf9-accc-29554ed32654" d="M97.59,50.28V67.7c-2.26,1-29.4,14.24-34,44-3.68,23.8,8.62,48.2,31,60.72l0,16.61a73.32,73.32,0,0,1,3-138.72Z" transform="translate(-2.55 -2.51)"></path></g><g id="b214a3a6-c663-4df2-9682-cc92098a658d" data-name="Letras"><path class="f56cfe6a-360d-4a9a-9ca9-c8d2c4912c66" d="M104.4,216.37l3.22,1.77a7.91,7.91,0,0,1-3.48,3.75,8.42,8.42,0,0,1-10.21-3.06,9.29,9.29,0,0,1-1-7,9.79,9.79,0,0,1,3.61-6.36,7.91,7.91,0,0,1,6.44-1.24,7.41,7.41,0,0,1,4.85,2.94,7,7,0,0,1,1.16,3.59l-3.68.14a3.7,3.7,0,0,0-3.11-3.68,4.08,4.08,0,0,0-3.45.77q-1.5,1.17-2.11,4.3-.66,3.33.25,5a4,4,0,0,0,2.83,2,3.57,3.57,0,0,0,2.61-.42A5.36,5.36,0,0,0,104.4,216.37Z" transform="translate(-2.55 -2.51)"></path><path class="f56cfe6a-360d-4a9a-9ca9-c8d2c4912c66" d="M126.66,223.92l-3.93,0-1.52-4.08-7.15-.09-1.53,4.05-3.83-.05,7.19-17.81,3.82.05Zm-6.57-7.16-2.38-6.67-2.5,6.61Z" transform="translate(-2.55 -2.51)"></path><path class="f56cfe6a-360d-4a9a-9ca9-c8d2c4912c66" d="M128.86,223.54l-1.94-17.64,3.59-.4,1.61,14.65,8.93-1,.33,3Z" transform="translate(-2.55 -2.51)"></path><path class="f56cfe6a-360d-4a9a-9ca9-c8d2c4912c66" d="M143.79,221.51,139.94,204l3.52-.78,3.86,17.48Z" transform="translate(-2.55 -2.51)"></path><path class="f56cfe6a-360d-4a9a-9ca9-c8d2c4912c66" d="M33,157.3,32.47,154a7.15,7.15,0,0,1,4.67.48,7,7,0,0,1,3.08,3.37,7.06,7.06,0,0,1,.32,5.83,8.54,8.54,0,0,1-4.6,4.56,9,9,0,0,1-6.67.86,7.27,7.27,0,0,1-4.47-4,6.81,6.81,0,0,1-.52-5.2,6.37,6.37,0,0,1,2-2.83l2.13,2.62a3.55,3.55,0,0,0-1.29,2,3.5,3.5,0,0,0,.31,2.35A3.72,3.72,0,0,0,29.9,166a6.41,6.41,0,0,0,4.33-.82q2.82-1.35,3.52-2.94a3.66,3.66,0,0,0-.07-3.21,3.33,3.33,0,0,0-1.75-1.68A4.91,4.91,0,0,0,33,157.3Z" transform="translate(-2.55 -2.51)"></path><path class="f56cfe6a-360d-4a9a-9ca9-c8d2c4912c66" d="M28.59,152.59a10.36,10.36,0,0,1-4.27.37,7.93,7.93,0,0,1-2.58-.9,6.38,6.38,0,0,1-2-1.67,9.06,9.06,0,0,1-1.55-3.26,7.71,7.71,0,0,1,.68-6.21,8.6,8.6,0,0,1,5.49-3.73,8.61,8.61,0,0,1,6.59.48,7.66,7.66,0,0,1,3.68,5A7.75,7.75,0,0,1,34,148.9,8.45,8.45,0,0,1,28.59,152.59Zm-1-3.28A6.17,6.17,0,0,0,31.36,147a4.2,4.2,0,0,0,.54-3.54,4.15,4.15,0,0,0-2.22-2.78,6.23,6.23,0,0,0-4.48-.12,6.16,6.16,0,0,0-3.76,2.29,4.61,4.61,0,0,0,1.72,6.38A6.29,6.29,0,0,0,27.6,149.31Z" transform="translate(-2.55 -2.51)"></path><path class="f56cfe6a-360d-4a9a-9ca9-c8d2c4912c66" d="M32.22,133.14,16,134.59l-.3-3.32,13.5-1.2-.73-8.23,2.76-.24Z" transform="translate(-2.55 -2.51)"></path><path class="f56cfe6a-360d-4a9a-9ca9-c8d2c4912c66" d="M31.2,119.91l-16.42-1.12.83-12.18,2.78.19-.61,8.86,3.64.25.57-8.25,2.76.19-.56,8.25,4.47.3.63-9.17,2.77.18Z" transform="translate(-2.55 -2.51)"></path><path class="f56cfe6a-360d-4a9a-9ca9-c8d2c4912c66" d="M28.31,96.49l-2.69-.68,1.76-6.94,6.36,1.6a9,9,0,0,1,1,3.37,10.7,10.7,0,0,1-.24,4.08A9.09,9.09,0,0,1,32.33,102a6.85,6.85,0,0,1-3.71,2,10,10,0,0,1-4.49-.13A9.56,9.56,0,0,1,20,101.76,7.27,7.27,0,0,1,17.76,98a8.58,8.58,0,0,1,.17-4,7.87,7.87,0,0,1,2.42-4.33,5.81,5.81,0,0,1,4-1.28l-.21,3.35a3.52,3.52,0,0,0-2.17.8,3.94,3.94,0,0,0-1.27,2.15,4.51,4.51,0,0,0,.49,3.7,5.77,5.77,0,0,0,3.66,2.25,6.45,6.45,0,0,0,4.58-.18,4.39,4.39,0,0,0,2.26-3,5.65,5.65,0,0,0,.11-2.14,7.34,7.34,0,0,0-.52-2l-2-.51Z" transform="translate(-2.55 -2.51)"></path><path class="f56cfe6a-360d-4a9a-9ca9-c8d2c4912c66" d="M37,88.9l-15.3-6.1L23,79.71l15.29,6.1Z" transform="translate(-2.55 -2.51)"></path><path class="f56cfe6a-360d-4a9a-9ca9-c8d2c4912c66" d="M31.62,80a10.31,10.31,0,0,1-3.31-2.72,7.56,7.56,0,0,1-1.22-2.44,6.43,6.43,0,0,1-.26-2.58A9.18,9.18,0,0,1,28,68.8a7.71,7.71,0,0,1,4.82-4A8.66,8.66,0,0,1,39.36,66a8.62,8.62,0,0,1,4.38,4.94,7.62,7.62,0,0,1-.87,6.16,7.72,7.72,0,0,1-4.81,4A8.51,8.51,0,0,1,31.62,80Zm1.58-3a6.18,6.18,0,0,0,4.33,1,4.45,4.45,0,0,0,3.21-5.7,6.33,6.33,0,0,0-3.13-3.22,6.18,6.18,0,0,0-4.29-1,4.6,4.6,0,0,0-3.21,5.77A6.21,6.21,0,0,0,33.2,76.91Z" transform="translate(-2.55 -2.51)"></path><path class="f56cfe6a-360d-4a9a-9ca9-c8d2c4912c66" d="M54,61.11,44,51.77l-3.33,3.57-2-1.9,8.93-9.56,2,1.9-3.33,3.56,10,9.34Z" transform="translate(-2.55 -2.51)"></path><path class="f56cfe6a-360d-4a9a-9ca9-c8d2c4912c66" d="M60.66,54.17l-10.12-13,9.63-7.5,1.71,2.2-7,5.46,2.24,2.88,6.52-5.08,1.7,2.18-6.52,5.09,2.76,3.53,7.25-5.65,1.71,2.18ZM53.29,37.84l-.84-3.6,2.79-2.17-.37,4.55Z" transform="translate(-2.55 -2.51)"></path><path class="f56cfe6a-360d-4a9a-9ca9-c8d2c4912c66" d="M78.71,35,82,34.43a7.24,7.24,0,0,1-.29,4.69,7.74,7.74,0,0,1-9.06,3.77,8.53,8.53,0,0,1-4.75-4.41,9.07,9.07,0,0,1-1.13-6.63,7.28,7.28,0,0,1,3.86-4.63,6.83,6.83,0,0,1,5.17-.74,6.5,6.5,0,0,1,2.91,1.89l-2.53,2.24a3.41,3.41,0,0,0-4.36-.81,3.73,3.73,0,0,0-2,2.56,6.43,6.43,0,0,0,1,4.29q1.47,2.76,3.08,3.4a3.62,3.62,0,0,0,3.2-.21A3.33,3.33,0,0,0,78.75,38,4.84,4.84,0,0,0,78.71,35Z" transform="translate(-2.55 -2.51)"></path><path class="f56cfe6a-360d-4a9a-9ca9-c8d2c4912c66" d="M86.36,38.09l-5-15.68,3.08-1,9.77,8.42L90.85,19.38l2.94-.94,5,15.68-3.17,1L86,26.93,89.3,37.15Z" transform="translate(-2.55 -2.51)"></path><path class="f56cfe6a-360d-4a9a-9ca9-c8d2c4912c66" d="M101.62,33.72l-3-16.18,3.26-.61,3,16.18Z" transform="translate(-2.55 -2.51)"></path><path class="f56cfe6a-360d-4a9a-9ca9-c8d2c4912c66" d="M117.56,25.81l3.28.82a7.21,7.21,0,0,1-2.21,4.15,7.77,7.77,0,0,1-9.81-.34,8.59,8.59,0,0,1-2.48-6,9,9,0,0,1,1.73-6.5,7.27,7.27,0,0,1,5.43-2.61,6.83,6.83,0,0,1,5,1.48,6.57,6.57,0,0,1,1.87,2.92l-3.24,1a3.39,3.39,0,0,0-3.63-2.55,3.78,3.78,0,0,0-2.89,1.49,6.47,6.47,0,0,0-.87,4.32c.12,2.08.59,3.54,1.39,4.37a3.64,3.64,0,0,0,3,1.15,3.37,3.37,0,0,0,2.23-1A4.88,4.88,0,0,0,117.56,25.81Z" transform="translate(-2.55 -2.51)"></path><path class="f56cfe6a-360d-4a9a-9ca9-c8d2c4912c66" d="M123.54,23.55a10.54,10.54,0,0,1,1.27-4.1,7.78,7.78,0,0,1,1.79-2.05,6.55,6.55,0,0,1,2.3-1.21,9.21,9.21,0,0,1,3.6-.21,7.71,7.71,0,0,1,5.5,3,8.65,8.65,0,0,1,1.4,6.5,8.63,8.63,0,0,1-2.92,5.92,8.66,8.66,0,0,1-11.55-1.42A8.51,8.51,0,0,1,123.54,23.55Zm3.41.31a6.21,6.21,0,0,0,.76,4.37,4.44,4.44,0,0,0,6.49.81,6.31,6.31,0,0,0,1.8-4.1,6.26,6.26,0,0,0-.71-4.35,4.62,4.62,0,0,0-6.57-.79A6.28,6.28,0,0,0,127,23.86Z" transform="translate(-2.55 -2.51)"></path><path class="f56cfe6a-360d-4a9a-9ca9-c8d2c4912c66" d="M145.88,35.57l6.31-15.21,4.6,1.91-1.55,11.52,7-9.24,4.61,1.91-6.31,15.21-2.85-1.19,5-12-8,10.72-3-1.23,2-13.22-5,12Z" transform="translate(-2.55 -2.51)"></path><path class="f56cfe6a-360d-4a9a-9ca9-c8d2c4912c66" d="M175,51.17l-3-2,.88-3.91-5.48-3.64L164.23,44,161.29,42l14.46-10.16,2.92,2Zm-1.48-8.82L175.05,36l-5.23,3.85Z" transform="translate(-2.55 -2.51)"></path><path class="f56cfe6a-360d-4a9a-9ca9-c8d2c4912c66" d="M175.74,51.91,187.15,40l5,4.85a12.08,12.08,0,0,1,2.46,3,3.79,3.79,0,0,1,.29,2.47,4.78,4.78,0,0,1-1.28,2.37,4.43,4.43,0,0,1-2.91,1.45,5.22,5.22,0,0,1-3.4-1.16,7.65,7.65,0,0,1,.32,2.23,19.23,19.23,0,0,1-.48,3.24l-.78,3.71-2.87-2.76.75-4.25a23.08,23.08,0,0,0,.42-3,2.57,2.57,0,0,0-.25-1.18,5.44,5.44,0,0,0-1.08-1.3l-.48-.46-4.76,5Zm9-4.55,1.77,1.71a12.88,12.88,0,0,0,2.3,1.92,1.71,1.71,0,0,0,1.15.14,2.15,2.15,0,0,0,1.1-.65,2,2,0,0,0,.61-1.28,2.08,2.08,0,0,0-.45-1.33c-.17-.21-.74-.79-1.71-1.72l-1.87-1.8Z" transform="translate(-2.55 -2.51)"></path><path class="f56cfe6a-360d-4a9a-9ca9-c8d2c4912c66" d="M186.88,63.28,199.67,52.9l2.09,2.58L189,65.86ZM200.16,52l3.58-.91L206,53.85l-4.55-.29Z" transform="translate(-2.55 -2.51)"></path><path class="f56cfe6a-360d-4a9a-9ca9-c8d2c4912c66" d="M198.58,80.36l-1.91-3.06,2.41-3.2-3.49-5.58-3.89.82-1.87-3,17.36-3.28,1.86,3Zm2.29-8.64,4-5.16-6.36,1.35Z" transform="translate(-2.55 -2.51)"></path><path class="f56cfe6a-360d-4a9a-9ca9-c8d2c4912c66" d="M201,86.13l15.6-5.26,3.91,11.56-2.64.9-2.84-8.42-3.46,1.17,2.64,7.83-2.63.88L209,87l-4.24,1.44,2.94,8.71L205,98Z" transform="translate(-2.55 -2.51)"></path><path class="f56cfe6a-360d-4a9a-9ca9-c8d2c4912c66" d="M205.47,100.14l16.11-2.7.55,3.27L208.76,103l1.37,8.15-2.74.46Z" transform="translate(-2.55 -2.51)"></path><path class="f56cfe6a-360d-4a9a-9ca9-c8d2c4912c66" d="M207.48,115.82l16.3-6.31.1,3.6-12.07,4.49,12.28,3.7.1,3.53-16.62-5.46Z" transform="translate(-2.55 -2.51)"></path><path class="f56cfe6a-360d-4a9a-9ca9-c8d2c4912c66" d="M207.35,126.28l16.4,1.46-.29,3.31-16.4-1.46Z" transform="translate(-2.55 -2.51)"></path><path class="f56cfe6a-360d-4a9a-9ca9-c8d2c4912c66" d="M207,132.25l16.1,3.48-.69,3.16-12.17,4.26L221,145.47l-.65,3L204.21,145l.7-3.26,11.9-4.22-10.5-2.26Z" transform="translate(-2.55 -2.51)"></path><path class="f56cfe6a-360d-4a9a-9ca9-c8d2c4912c66" d="M203.15,147.65l15.53,5.45-1.1,3.14-15.53-5.45Z" transform="translate(-2.55 -2.51)"></path><path class="f56cfe6a-360d-4a9a-9ca9-c8d2c4912c66" d="M194.7,166.58l1.61-3.24,4,.38,2.94-5.89-2.74-2.89,1.57-3.15L214,164.87,212.38,168Zm8.56-2.58,6.48.69L205.26,160Z" transform="translate(-2.55 -2.51)"></path></g></svg>